<svg viewBox="0 0 204 204" fill="none" xmlns="http://www.w3.org/2000/svg">
<title>Custom</title>
<path d="M179.915 46.8524H8.4345C8.4345 46.8524 8.58108 148.992 8.4345 154.644C8.4334 154.692 8.4334 154.741 8.43486 154.789C8.58218 160.227 10.8102 165.316 14.7079 169.118C18.6149 172.929 23.7719 175.028 29.2306 175.028H119.805C120.534 175.028 121.233 174.738 121.748 174.223L181.858 114.114C182.373 113.598 182.662 112.9 182.662 112.171V49.5991C182.662 48.0817 181.432 46.8524 179.915 46.8524Z" fill="#E0E0E2"/>
<path d="M58.1201 118.68H69.3452L78.3459 90.4346L121.928 46.8524H111.673L68.0906 90.4346L58.1201 118.68Z" fill="#C6C5CA"/>
<path d="M179.915 46.8524H170.758V125.213L181.857 114.114C182.372 113.598 182.661 112.9 182.661 112.171V49.5991C182.662 48.0817 181.432 46.8524 179.915 46.8524Z" fill="#C6C5CA"/>
<path d="M133.585 120.93H57.5104C55.9934 120.93 54.7633 119.7 54.7633 118.183C54.7633 116.665 55.9934 115.436 57.5104 115.436H133.585C135.102 115.436 136.332 116.665 136.332 118.183C136.332 119.7 135.102 120.93 133.585 120.93Z" fill="#3C5156"/>
<path d="M29.2963 132.869C30.4811 132.869 31.6417 132.971 32.7734 133.159V19.6762C32.7734 18.1588 31.5433 16.9291 30.0263 16.9291C18.1133 16.9291 8.42096 26.6211 8.42096 38.5345V151.046C9.83597 140.778 18.6401 132.869 29.2963 132.869Z" fill="#919191"/>
<path d="M157.545 44.2311L141.047 27.7335C140.532 27.2184 139.833 26.9293 139.105 26.9293C138.376 26.9293 137.678 27.2188 137.162 27.7335L76.4034 88.4921C76.3669 88.5287 76.3343 88.5678 76.3 88.6065L96.9787 108.681L157.544 48.1161C158.618 47.0429 158.618 45.304 157.545 44.2311Z" fill="#FFD039"/>
<path d="M89.4321 101.355L96.9787 108.681L157.544 48.1165C158.617 47.0432 158.617 45.3043 157.544 44.2315L152.047 38.7341L89.4321 101.355Z" fill="#FFA304"/>
<path d="M76.3073 88.6134C76.0642 88.8806 75.8705 89.195 75.7462 89.5466L66.7546 115.019C66.4026 116.016 66.6544 117.127 67.4023 117.875C67.9265 118.4 68.6287 118.68 69.3448 118.68C69.6515 118.68 69.96 118.628 70.259 118.523L95.7308 109.531C96.221 109.358 96.6391 109.05 96.9546 108.657L76.3073 88.6134Z" fill="#FFC89F"/>
<path d="M69.3452 118.68C69.6519 118.68 69.9604 118.628 70.2594 118.523L95.7311 109.531C96.2213 109.358 96.6395 109.05 96.955 108.657L89.4237 101.346L69.0012 108.655L66.7549 115.018C66.4029 116.016 66.6548 117.126 67.4027 117.875C67.9269 118.399 68.6287 118.68 69.3452 118.68Z" fill="#F7B081"/>
<path d="M69.3452 118.68C69.6519 118.68 69.9604 118.628 70.2594 118.523L86.3228 112.853L72.3993 99.0288L66.7553 115.018C66.4033 116.016 66.6552 117.126 67.4031 117.875C67.9269 118.399 68.6287 118.68 69.3452 118.68Z" fill="#3C5156"/>
<path d="M78.6256 105.211L69.0012 108.655L66.7549 115.018C66.4029 116.016 66.6548 117.127 67.4027 117.875C67.9269 118.399 68.6291 118.679 69.3452 118.679C69.6519 118.679 69.9604 118.628 70.2594 118.522L86.3228 112.852L78.6256 105.211Z" fill="#304144"/>
<path d="M166.47 35.3053L149.972 18.808C148.899 17.7355 147.16 17.7355 146.088 18.808L135.227 29.6683L155.601 50.0593L166.47 39.1907C166.985 38.6753 167.274 37.9771 167.274 37.2482C167.274 36.5197 166.985 35.8211 166.47 35.3053Z" fill="#FF6137"/>
<path d="M148.164 42.6162L150.745 45.1991L155.603 50.0572L166.47 39.1903C166.985 38.6749 167.274 37.9767 167.274 37.2478C167.274 36.5193 166.985 35.8207 166.47 35.3053L160.973 29.8079L148.164 42.6162Z" fill="#E04F32"/>
<path d="M173.856 19.9587L165.319 11.4219C163.737 9.84017 161.633 8.96909 159.396 8.96909C157.159 8.96909 155.055 9.84017 153.473 11.4219L148.034 16.8611L146.087 18.808L144.107 20.7874L164.528 41.1324L167.444 38.2158L173.856 31.8041C175.437 30.2224 176.308 28.1184 176.308 25.8813C176.308 23.6441 175.438 21.5408 173.856 19.9587Z" fill="#546F7A"/>
<path d="M144.141 20.7542L144.108 20.7878L150.2 26.8572L144.141 20.7542Z" fill="#475D63"/>
<path d="M173.856 19.9587L167.119 13.2218C168.221 14.6862 168.825 16.4601 168.825 18.3317C168.825 20.5937 167.954 22.7204 166.373 24.3204L159.961 30.8033L157.083 33.7145L164.529 41.1331L167.445 38.2165L173.857 31.8049C175.438 30.2232 176.31 28.1191 176.31 25.882C176.31 23.6449 175.438 21.5408 173.856 19.9587Z" fill="#475D63"/>
<path d="M193.883 96.7164C192.856 96.2909 191.675 96.526 190.889 97.3115L97.3636 190.837C96.5781 191.623 96.343 192.804 96.7682 193.831C97.1933 194.857 98.1952 195.527 99.3061 195.527H192.832C194.349 195.527 195.579 194.297 195.579 192.779V99.2544C195.579 98.1435 194.909 97.1412 193.883 96.7164ZM142.952 173.306L172.973 143.285V173.306H142.952V173.306Z" fill="#FFCA10"/>
<path d="M193.883 96.7164C192.856 96.2909 191.675 96.526 190.889 97.3115L183.675 104.526V195.527H192.831C194.348 195.527 195.578 194.297 195.578 192.78V99.2544C195.579 98.1435 194.909 97.1412 193.883 96.7164Z" fill="#FFA304"/>
<path d="M195.579 130.122H185.017C183.499 130.122 182.27 131.351 182.27 132.869C182.27 134.386 183.499 135.616 185.017 135.616H195.579V130.122Z" fill="#C96E14"/>
<path d="M195.579 143.894H185.017C183.499 143.894 182.27 145.123 182.27 146.641C182.27 148.158 183.499 149.388 185.017 149.388H195.579V143.894Z" fill="#C96E14"/>
<path d="M195.579 157.665H185.017C183.499 157.665 182.27 158.894 182.27 160.412C182.27 161.929 183.499 163.159 185.017 163.159H195.579V157.665Z" fill="#C96E14"/>
<path d="M195.579 171.437H185.017C183.499 171.437 182.27 172.667 182.27 174.184C182.27 175.701 183.499 176.931 185.017 176.931H195.579V171.437Z" fill="#C96E14"/>
</svg>
