<svg viewBox="0 0 204 204" fill="none" xmlns="http://www.w3.org/2000/svg">
<title>Express</title>
<path d="M161.973 79.9695C161.619 79.3451 161.106 78.8258 160.486 78.4644C159.866 78.1031 159.161 77.9127 158.443 77.9127H105.298L114.208 9.8358C114.304 8.9247 114.09 8.00793 113.601 7.23311C113.113 6.45829 112.377 5.8705 111.514 5.56437C110.65 5.25825 109.709 5.25161 108.841 5.54553C107.974 5.83944 107.23 6.4168 106.731 7.18466L42.101 120.413C41.7231 121.028 41.5159 121.732 41.5009 122.454C41.486 123.175 41.6637 123.887 42.0157 124.517C42.3678 125.147 42.8816 125.672 43.5039 126.037C44.1263 126.402 44.8348 126.595 45.5564 126.595H97.9069L90.846 194.774C90.7766 195.682 91.0129 196.587 91.5172 197.345C92.0215 198.103 92.7649 198.671 93.6291 198.958C94.4933 199.245 95.4287 199.235 96.2863 198.929C97.144 198.623 97.8748 198.039 98.3623 197.27L161.924 84.0537C162.292 83.4381 162.491 82.7357 162.5 82.0182C162.508 81.3007 162.326 80.5937 161.973 79.9695Z" fill="url(#paint0_linear_2_30)"/>
<defs>
<linearGradient id="paint0_linear_2_30" x1="49.4013" y1="155.382" x2="155.669" y2="49.1142" gradientUnits="userSpaceOnUse">
<stop stop-color="#34CDFA"/>
<stop offset="1" stop-color="#E8D9F1"/>
</linearGradient>
</defs>
</svg>
